<svg width="255" height="258" viewBox="0 0 255 258" fill="none" xmlns="http://www.w3.org/2000/svg">
<g filter="url(#filter0_d_31003_849)">
<path d="M94.97 8.06248C99.4569 8.09367 103.941 8.12485 108.222 8.12485H151.778C156.059 8.12485 160.543 8.09367 165.03 8.06248C177.11 7.97849 189.207 7.89438 197.395 8.41824C227.201 10.3253 247.758 28.3685 250.401 59.0274C251.027 70.0444 251.012 83.3162 250.994 98.9677V98.9722C250.991 101.659 250.988 104.415 250.988 107.242V150.758C250.988 153.585 250.991 156.341 250.994 159.028C251.012 174.681 251.027 187.955 250.401 198.973C247.758 229.631 227.201 247.675 197.395 249.582C189.207 250.106 177.11 250.022 165.03 249.938C160.543 249.906 156.059 249.875 151.778 249.875H108.222C103.941 249.875 99.4569 249.906 94.97 249.938C82.8902 250.022 70.793 250.106 62.605 249.582C32.7985 247.675 12.2423 229.631 9.59937 198.973C8.97277 187.956 8.98789 174.684 9.00575 159.032V159.028C9.00883 156.341 9.01198 153.585 9.01198 150.758V107.242C9.01198 104.415 9.00883 101.659 9.00575 98.9722V98.9677C8.98789 83.3162 8.97277 70.0444 9.59937 59.0274C12.2423 28.3685 32.7985 10.3253 62.605 8.41824C70.793 7.89438 82.8902 7.97849 94.97 8.06248Z" fill="url(#paint0_linear_31003_849)"/>
<path d="M250.494 98.9671V98.9677V98.9717C250.491 101.658 250.488 104.415 250.488 107.242V150.758C250.488 153.585 250.491 156.342 250.494 159.028C250.512 174.683 250.527 187.938 249.902 198.937C248.588 214.157 242.835 226.209 233.743 234.694C224.647 243.182 212.173 248.135 197.363 249.083C189.197 249.605 177.121 249.522 165.034 249.438H165.033C160.546 249.406 156.06 249.375 151.778 249.375H108.222C103.94 249.375 99.4537 249.406 94.9675 249.438H94.9665C82.879 249.522 70.8029 249.605 62.637 249.083C47.8267 248.135 35.3526 243.182 26.257 234.694C17.1654 226.209 11.4117 214.157 10.0982 198.937C9.47297 187.939 9.48789 174.686 9.50575 159.033V159.032V159.028C9.50883 156.342 9.51198 153.585 9.51198 150.758V107.242C9.51198 104.415 9.50883 101.658 9.50575 98.972L9.50575 98.9677L9.50574 98.9671C9.48789 83.3141 9.47297 70.061 10.0982 59.0631C11.4117 43.8433 17.1654 31.7912 26.257 23.3064C35.3526 14.8178 47.8267 9.86478 62.637 8.91722C70.8029 8.39476 82.879 8.47842 94.9665 8.56247L94.9675 8.56247C99.4537 8.59366 103.94 8.62485 108.222 8.62485H151.778C156.06 8.62485 160.546 8.59366 165.033 8.56247L165.034 8.56247C177.121 8.47842 189.197 8.39476 197.363 8.91722C212.173 9.86478 224.647 14.8178 233.743 23.3064C242.835 31.7912 248.588 43.8433 249.902 59.0631C250.527 70.0611 250.512 83.3142 250.494 98.9671Z" stroke="black"/>
</g>
<g filter="url(#filter1_d_31003_849)">
<path d="M212 170C212 178.837 204.837 186 196 186H170C168.343 186 167 184.657 167 183V115C167 113.343 168.343 112 170 112H196C204.837 112 212 119.163 212 128V170Z" fill="#E6EDFC"/>
<path d="M212 170C212 178.837 204.837 186 196 186H170C168.343 186 167 184.657 167 183V115C167 113.343 168.343 112 170 112H196C204.837 112 212 119.163 212 128V170Z" fill="url(#paint1_linear_31003_849)" fill-opacity="0.2"/>
</g>
<g filter="url(#filter2_dd_31003_849)">
<path d="M74 89.5V89.5C83.2669 24.1456 177.888 24.0561 186.5 89.5V89.5" stroke="white" stroke-width="12" stroke-linecap="round"/>
</g>
<g filter="url(#filter3_d_31003_849)">
<path d="M76 186V196C76 203.732 82.268 210 90 210H135" stroke="#E4EBFC" stroke-width="6" stroke-linecap="round"/>
</g>
<g filter="url(#filter4_d_31003_849)">
<path d="M47 128C47 119.163 54.1634 112 63 112H89C90.6569 112 92 113.343 92 115V183C92 184.657 90.6569 186 89 186H63C54.1634 186 47 178.837 47 170V128Z" fill="#E6EDFC"/>
<path d="M47 128C47 119.163 54.1634 112 63 112H89C90.6569 112 92 113.343 92 115V183C92 184.657 90.6569 186 89 186H63C54.1634 186 47 178.837 47 170V128Z" fill="url(#paint2_linear_31003_849)" fill-opacity="0.2"/>
</g>
<g filter="url(#filter5_dd_31003_849)">
<path d="M105 209C105 203.477 109.477 199 115 199H130C135.523 199 140 203.477 140 209V210C140 215.523 135.523 220 130 220H115C109.477 220 105 215.523 105 210V209Z" fill="#E6EDFC"/>
<path d="M105 209C105 203.477 109.477 199 115 199H130C135.523 199 140 203.477 140 209V210C140 215.523 135.523 220 130 220H115C109.477 220 105 215.523 105 210V209Z" fill="url(#paint3_linear_31003_849)" fill-opacity="0.2"/>
</g>
<defs>
<filter id="filter0_d_31003_849" x="5" y="8" width="250" height="250" filterUnits="userSpaceOnUse" color-interpolation-filters="sRGB">
<feFlood flood-opacity="0" result="BackgroundImageFix"/>
<feColorMatrix in="SourceAlpha" type="matrix" values="0 0 0 0 0 0 0 0 0 0 0 0 0 0 0 0 0 0 127 0" result="hardAlpha"/>
<feOffset dy="4"/>
<feGaussianBlur stdDeviation="2"/>
<feComposite in2="hardAlpha" operator="out"/>
<feColorMatrix type="matrix" values="0 0 0 0 0 0 0 0 0 0 0 0 0 0 0 0 0 0 0.25 0"/>
<feBlend mode="normal" in2="BackgroundImageFix" result="effect1_dropShadow_31003_849"/>
<feBlend mode="normal" in="SourceGraphic" in2="effect1_dropShadow_31003_849" result="shape"/>
</filter>
<filter id="filter1_d_31003_849" x="155" y="100" width="69" height="98" filterUnits="userSpaceOnUse" color-interpolation-filters="sRGB">
<feFlood flood-opacity="0" result="BackgroundImageFix"/>
<feColorMatrix in="SourceAlpha" type="matrix" values="0 0 0 0 0 0 0 0 0 0 0 0 0 0 0 0 0 0 127 0" result="hardAlpha"/>
<feMorphology radius="5" operator="dilate" in="SourceAlpha" result="effect1_dropShadow_31003_849"/>
<feOffset/>
<feGaussianBlur stdDeviation="3.5"/>
<feComposite in2="hardAlpha" operator="out"/>
<feColorMatrix type="matrix" values="0 0 0 0 0 0 0 0 0 0 0 0 0 0 0 0 0 0 0.25 0"/>
<feBlend mode="normal" in2="BackgroundImageFix" result="effect1_dropShadow_31003_849"/>
<feBlend mode="normal" in="SourceGraphic" in2="effect1_dropShadow_31003_849" result="shape"/>
</filter>
<filter id="filter2_dd_31003_849" x="63.9992" y="32.4504" width="142.501" height="75.0504" filterUnits="userSpaceOnUse" color-interpolation-filters="sRGB">
<feFlood flood-opacity="0" result="BackgroundImageFix"/>
<feColorMatrix in="SourceAlpha" type="matrix" values="0 0 0 0 0 0 0 0 0 0 0 0 0 0 0 0 0 0 127 0" result="hardAlpha"/>
<feOffset dx="7" dy="5"/>
<feGaussianBlur stdDeviation="3.5"/>
<feComposite in2="hardAlpha" operator="out"/>
<feColorMatrix type="matrix" values="0 0 0 0 0 0 0 0 0 0 0 0 0 0 0 0 0 0 0.25 0"/>
<feBlend mode="normal" in2="BackgroundImageFix" result="effect1_dropShadow_31003_849"/>
<feColorMatrix in="SourceAlpha" type="matrix" values="0 0 0 0 0 0 0 0 0 0 0 0 0 0 0 0 0 0 127 0" result="hardAlpha"/>
<feOffset dy="4"/>
<feGaussianBlur stdDeviation="2"/>
<feComposite in2="hardAlpha" operator="out"/>
<feColorMatrix type="matrix" values="0 0 0 0 0 0 0 0 0 0 0 0 0 0 0 0 0 0 0.25 0"/>
<feBlend mode="normal" in2="effect1_dropShadow_31003_849" result="effect2_dropShadow_31003_849"/>
<feBlend mode="normal" in="SourceGraphic" in2="effect2_dropShadow_31003_849" result="shape"/>
</filter>
<filter id="filter3_d_31003_849" x="66" y="176" width="79" height="44" filterUnits="userSpaceOnUse" color-interpolation-filters="sRGB">
<feFlood flood-opacity="0" result="BackgroundImageFix"/>
<feColorMatrix in="SourceAlpha" type="matrix" values="0 0 0 0 0 0 0 0 0 0 0 0 0 0 0 0 0 0 127 0" result="hardAlpha"/>
<feOffset/>
<feGaussianBlur stdDeviation="3.5"/>
<feComposite in2="hardAlpha" operator="out"/>
<feColorMatrix type="matrix" values="0 0 0 0 0 0 0 0 0 0 0 0 0 0 0 0 0 0 0.25 0"/>
<feBlend mode="normal" in2="BackgroundImageFix" result="effect1_dropShadow_31003_849"/>
<feBlend mode="normal" in="SourceGraphic" in2="effect1_dropShadow_31003_849" result="shape"/>
</filter>
<filter id="filter4_d_31003_849" x="35" y="100" width="69" height="98" filterUnits="userSpaceOnUse" color-interpolation-filters="sRGB">
<feFlood flood-opacity="0" result="BackgroundImageFix"/>
<feColorMatrix in="SourceAlpha" type="matrix" values="0 0 0 0 0 0 0 0 0 0 0 0 0 0 0 0 0 0 127 0" result="hardAlpha"/>
<feMorphology radius="5" operator="dilate" in="SourceAlpha" result="effect1_dropShadow_31003_849"/>
<feOffset/>
<feGaussianBlur stdDeviation="3.5"/>
<feComposite in2="hardAlpha" operator="out"/>
<feColorMatrix type="matrix" values="0 0 0 0 0 0 0 0 0 0 0 0 0 0 0 0 0 0 0.25 0"/>
<feBlend mode="normal" in2="BackgroundImageFix" result="effect1_dropShadow_31003_849"/>
<feBlend mode="normal" in="SourceGraphic" in2="effect1_dropShadow_31003_849" result="shape"/>
</filter>
<filter id="filter5_dd_31003_849" x="98" y="192" width="49" height="36" filterUnits="userSpaceOnUse" color-interpolation-filters="sRGB">
<feFlood flood-opacity="0" result="BackgroundImageFix"/>
<feColorMatrix in="SourceAlpha" type="matrix" values="0 0 0 0 0 0 0 0 0 0 0 0 0 0 0 0 0 0 127 0" result="hardAlpha"/>
<feOffset/>
<feGaussianBlur stdDeviation="3.5"/>
<feComposite in2="hardAlpha" operator="out"/>
<feColorMatrix type="matrix" values="0 0 0 0 0 0 0 0 0 0 0 0 0 0 0 0 0 0 0.25 0"/>
<feBlend mode="normal" in2="BackgroundImageFix" result="effect1_dropShadow_31003_849"/>
<feColorMatrix in="SourceAlpha" type="matrix" values="0 0 0 0 0 0 0 0 0 0 0 0 0 0 0 0 0 0 127 0" result="hardAlpha"/>
<feOffset dy="4"/>
<feGaussianBlur stdDeviation="2"/>
<feComposite in2="hardAlpha" operator="out"/>
<feColorMatrix type="matrix" values="0 0 0 0 0 0 0 0 0 0 0 0 0 0 0 0 0 0 0.25 0"/>
<feBlend mode="normal" in2="effect1_dropShadow_31003_849" result="effect2_dropShadow_31003_849"/>
<feBlend mode="normal" in="SourceGraphic" in2="effect2_dropShadow_31003_849" result="shape"/>
</filter>
<linearGradient id="paint0_linear_31003_849" x1="130" y1="8" x2="130" y2="250" gradientUnits="userSpaceOnUse">
<stop offset="0.265" stop-color="#8FCFC0"/>
<stop offset="0.795" stop-color="#06D001"/>
</linearGradient>
<linearGradient id="paint1_linear_31003_849" x1="189.5" y1="186" x2="189.5" y2="112" gradientUnits="userSpaceOnUse">
<stop stop-color="white"/>
<stop offset="1" stop-color="#C5D4F7"/>
</linearGradient>
<linearGradient id="paint2_linear_31003_849" x1="69.5" y1="112" x2="69.5" y2="186" gradientUnits="userSpaceOnUse">
<stop stop-color="white"/>
<stop offset="1" stop-color="#C5D4F7"/>
</linearGradient>
<linearGradient id="paint3_linear_31003_849" x1="122.5" y1="199" x2="122.5" y2="220" gradientUnits="userSpaceOnUse">
<stop stop-color="white"/>
<stop offset="1" stop-color="#C5D4F7"/>
</linearGradient>
</defs>
</svg>
